# xmcd
#
# Track frame offsets: 
#        150
#        13885
#        26512
#        41725
#
# Disc length: 880 seconds
#
# Revision: 0
# Processed by: cddbd v1.5.2PL0 Copyright (c) Steve Scherf et al.
# Submitted via: ExactAudioCopy v0.99pb5
#
DISCID=2b036e04
DTITLE=Vaya Con Dios - Don't cry for Louie
DYEAR=1988
DGENRE=Latin
TTITLE0=Don't cry for Louie
TTITLE1=The moonshiper
TTITLE2=Lord help me please
TTITLE3=Don't cry for Louie (maxi version)
EXTD=
EXTT0=
EXTT1=
EXTT2=
EXTT3=
PLAYORDER=
